<?xml version="1.0" encoding="UTF-8" standalone="yes"?>
<svg xmlns="http://www.w3.org/2000/svg" xmlns:xlink="http://www.w3.org/1999/xlink" width="128px" height="128px" viewBox="0 0 128 128" version="1.1" fill="#000000">
  <g id="surface108472">
    <path style=" stroke:none;fill-rule:nonzero;fill:#000000;fill-opacity:1;" d="M 118.21875 34.015625 C 117.984375 33.71875 117.765625 33.4375 117.515625 33.171875 C 117.3125 32.96875 117.125 32.765625 116.90625 32.59375 C 116.375 32.140625 115.8125 31.71875 115.15625 31.40625 L 86.1875 17.140625 C 85.453125 16.78125 84.65625 16.5 83.84375 16.3125 C 83 16.109375 82.125 16 81.25 16 C 77.375 16 73.6875 18.015625 71.65625 21.265625 L 67.640625 27.703125 L 58.40625 42.46875 L 54.859375 34.640625 C 53.984375 33.265625 52.8125 32.21875 51.421875 31.53125 C 51.421875 31.53125 23.953125 18.015625 23.953125 18.015625 L 23.078125 17.578125 C 21.46875 16.78125 19.796875 16.390625 18.109375 16.390625 C 12.34375 16.390625 8 20.90625 8 26.90625 L 8 87.046875 C 8 91.703125 10.921875 96.390625 15.125 98.453125 L 40.03125 110.71875 C 41.765625 111.5625 43.5625 112 45.375 112 C 51.421875 112 56 107.203125 56 100.84375 L 56 87.0625 L 72 94.9375 L 101.671875 109.546875 L 103.140625 110.28125 C 105.140625 111.265625 107.1875 111.765625 109.1875 111.765625 C 115.359375 111.765625 120 107.0625 120 100.84375 L 120 39.1875 C 120 37.25 119.3125 35.484375 118.21875 34.015625 Z M 48 74.21875 L 48 100.84375 C 48 102.8125 46.921875 104 45.375 104 C 44.8125 104 44.21875 103.859375 43.578125 103.53125 L 18.65625 91.265625 C 17.203125 90.546875 16 88.640625 16 87.046875 L 16 26.90625 C 16 25.328125 16.875 24.390625 18.109375 24.390625 C 18.546875 24.390625 19.03125 24.5 19.546875 24.75 L 20.421875 25.1875 C 20.421875 25.1875 20.421875 25.1875 20.4375 25.1875 L 47.890625 38.703125 C 47.9375 38.734375 47.96875 38.765625 48 38.8125 Z M 59.53125 79.890625 L 56 78.140625 L 56 56.484375 L 68.6875 84.390625 Z M 62.375 51.203125 L 74.609375 31.625 L 78.4375 25.5 C 79.046875 24.546875 80.140625 24 81.25 24 C 81.34375 24 81.421875 24.046875 81.515625 24.0625 C 81.90625 24.09375 82.296875 24.140625 82.65625 24.3125 L 111.625 38.578125 C 111.75 38.640625 111.75 38.78125 111.8125 38.90625 C 111.8125 38.96875 111.828125 39.03125 111.796875 39.09375 L 87.796875 77.484375 L 80 89.96875 Z M 112 100.84375 C 112 102.703125 110.859375 103.765625 109.1875 103.765625 C 108.4375 103.765625 107.59375 103.546875 106.6875 103.09375 L 99.125 99.375 L 87.21875 93.515625 L 89.4375 89.96875 L 112 53.859375 Z M 112 100.84375 "/>
  </g>
</svg>
